<svg
 viewBox="0 0 1024 1024" xmlns="http://www.w3.org/2000/svg" fill="currentColor" height="1em" width="2em">
  <metadata
     id="metadata300">
    <rdf:RDF>
      <cc:Work
         rdf:about="">
        <dc:format>image/svg+xml</dc:format>
        <dc:type
           rdf:resource="http://purl.org/dc/dcmitype/StillImage" />
        <dc:title></dc:title>
      </cc:Work>
    </rdf:RDF>
  </metadata>
  <defs
     id="defs298" />
  <g
     id="g1691">
    <g
       id="g4">
      <path
         style="opacity:0.9300001;fill:#fbb613"
         d="m 447.5,28.5 c -89.667,0 -179.333,0 -269,0 13.018,-3.0983 26.352,-4.9316 40,-5.5 76.333,-0.5 152.666,-0.6667 229,-0.5 0,2 0,4 0,6 z"
         id="path2" />
    </g>
    <g
       id="g8">
      <path
         style="opacity:0.953;fill:#fbb613"
         d="m 522.5,28.5 c -12.667,0 -25.333,0 -38,0 0,-2 0,-4 0,-6 12.667,0 25.333,0 38,0 0,2 0,4 0,6 z"
         id="path6" />
    </g>
    <g
       id="g12">
      <path
         style="opacity:0.93399999;fill:#fbb613"
         d="m 598.5,28.5 c -13,0 -26,0 -39,0 0,-2 0,-4 0,-6 13,0 26,0 39,0 0,2 0,4 0,6 z"
         id="path10" />
    </g>
    <g
       id="g16">
      <path
         style="opacity:0.91500005;fill:#fbb613"
         d="m 1237.5,28.5 c -140.33,0 -280.667,0 -421,0 0.737,-1.8046 1.737,-3.4713 3,-5 140.667,-1.3333 281.33,-1.3333 422,0 -1.39,1.71 -2.72,3.3767 -4,5 z"
         id="path14" />
    </g>
    <g
       id="g24">
      <path
         style="opacity:0.99100001;fill:#fbb316"
         d="m 178.5,28.5 c 89.667,0 179.333,0 269,0 0,10.6667 0,21.3333 0,32 12.333,0 24.667,0 37,0 0,-10.6667 0,-21.3333 0,-32 12.667,0 25.333,0 38,0 0,11 0,22 0,33 -12.333,0 -24.667,0 -37,0 0,3.3333 0,6.6667 0,10 -13,0 -26,0 -39,0 0,-3.3333 0,-6.6667 0,-10 -12,0 -24,0 -36,0 0,3.3333 0,6.6667 0,10 -109,0 -218,0 -327,0 27.672,-22.6607 59.338,-36.9941 95,-43 z"
         id="path22" />
    </g>
    <g
       id="g28">
      <path
         style="opacity:0.95200004;fill:#fbb316"
         d="m 559.5,28.5 c 13,0 26,0 39,0 0,11 0,22 0,33 -13,0 -26,0 -39,0 0,-11 0,-22 0,-33 z"
         id="path26" />
    </g>
    <g
       id="g32">
      <path
         style="opacity:0.997;fill:#fbb316"
         d="m 816.5,28.5 c 140.333,0 280.67,0 421,0 -10.65,14.6423 -21.65,28.9756 -33,43 -139.67,0 -279.333,0 -419,0 10.1,-14.5478 20.434,-28.8811 31,-43 z"
         id="path30" />
    </g>
    <g
       id="g40">
      <path
         style="opacity:0.99599998;fill:#fbaf19"
         d="m 83.5,71.5 c 109,0 218,0 327,0 0,7 0,14 0,21 -116,0 -232,0 -348,0 6,-8 13,-15 21,-21 z"
         id="path38" />
    </g>
    <g
       id="g44">
      <path
         style="opacity:0.97399998;fill:#fbaf19"
         d="m 446.5,71.5 c 13,0 26,0 39,0 0,7 0,14 0,21 -13,0 -26,0 -39,0 0,-7 0,-14 0,-21 z"
         id="path42" />
    </g>
    <g
       id="g48">
      <path
         style="opacity:0.997;fill:#fbaf19"
         d="m 785.5,71.5 c 139.667,0 279.33,0 419,0 -5.33,7 -10.67,14 -16,21 -139,0 -278,0 -417,0 4.408,-7.1434 9.075,-14.1434 14,-21 z"
         id="path46" />
    </g>
    <g
       id="g52">
      <path
         style="opacity:0.98299997;fill:#faab1c"
         d="m 62.5,92.5 c 116,0 232,0 348,0 0,1.6667 0,3.3333 0,5 12,0 24,0 36,0 0,-1.6667 0,-3.3333 0,-5 13,0 26,0 39,0 0,1.6667 0,3.3333 0,5 13.35,-0.3325 26.683,8e-4 40,1 11.111,15.764 21.777,31.764 32,48 -38,0 -76,0 -114,0 -10.867,-15.892 -21.867,-31.725 -33,-47.5 -61,-0.6667 -122,-0.6667 -183,0 -32.553,1.727 -60.387,13.894 -83.5,36.5 -2.853,3.735 -5.687,7.402 -8.5,11 -34.333,0 -68.6667,0 -103,0 5.8895,-20.461 15.8895,-38.461 30,-54 z"
         id="path50" />
    </g>
    <g
       id="g56">
      <path
         style="opacity:0.981;fill:#faac1c"
         d="m 771.5,92.5 c 139,0 278,0 417,0 -1.5,1.675 -2.84,3.5083 -4,5.5 -102.67,0.1667 -205.335,0.6667 -308,1.5 -11.11,15.911 -22.443,31.577 -34,47 -36.667,0 -73.333,0 -110,0 12.522,-18.391 25.522,-36.391 39,-54 z"
         id="path54" />
    </g>
    <g
       id="g60">
      <path
         style="opacity:0.98999999;fill:#faa621"
         d="m 32.5,146.5 c 34.3333,0 68.667,0 103,0 -7.628,11.55 -12.295,24.216 -14,38 -31.6667,0 -63.3333,0 -95,0 0.057,-13.007 2.057,-25.674 6,-38 z"
         id="path58" />
    </g>
    <g
       id="g64">
      <path
         style="opacity:0.98900003;fill:#faa621"
         d="m 443.5,146.5 c 38,0 76,0 114,0 9.025,12.369 17.691,25.036 26,38 -37.667,0 -75.333,0 -113,0 -8.988,-12.629 -17.988,-25.296 -27,-38 z"
         id="path62" />
    </g>
    <g
       id="g68">
      <path
         style="opacity:0.98799995;fill:#faa621"
         d="m 732.5,146.5 c 36.667,0 73.333,0 110,0 -8.25,12.923 -16.917,25.59 -26,38 -37,0 -74,0 -111,0 9,-12.667 18,-25.333 27,-38 z"
         id="path66" />
    </g>
    <g
       id="g72">
      <path
         style="opacity:0.97600002;fill:#faa521"
         d="m 1203.5,184.5 c -104,0 -208,0 -312,0 0,-7.667 0,-15.333 0,-23 110,-0.167 220,0 330,0.5 -5.48,7.976 -11.48,15.476 -18,22.5 z"
         id="path70" />
    </g>
    <g
       id="g76">
      <path
         style="opacity:0.98999999;fill:#f9a323"
         d="m 26.5,184.5 c 31.6667,0 63.3333,0 95,0 -0.955,5.909 -1.289,11.909 -1,18 -31.3333,0 -62.6667,0 -94,0 -1.2028,-6.014 -1.2028,-12.014 0,-18 z"
         id="path74" />
    </g>
    <g
       id="g80">
      <path
         style="opacity:0.98900003;fill:#f9a323"
         d="m 470.5,184.5 c 37.667,0 75.333,0 113,0 4.359,5.705 8.359,11.705 12,18 -37.667,0 -75.333,0 -113,0 -4.385,-5.723 -8.385,-11.723 -12,-18 z"
         id="path78" />
    </g>
    <g
       id="g84">
      <path
         style="opacity:0.98900003;fill:#f9a323"
         d="m 705.5,184.5 c 37,0 74,0 111,0 -4.333,6 -8.667,12 -13,18 -36.667,0 -73.333,0 -110,0 3.582,-6.254 7.582,-12.254 12,-18 z"
         id="path82" />
    </g>
    <g
       id="g88">
      <path
         style="opacity:0.99800002;fill:#f9a323"
         d="m 891.5,184.5 c 104,0 208,0 312,0 -4.32,6.31 -8.98,12.31 -14,18 -99.33,0 -198.667,0 -298,0 0,-6 0,-12 0,-18 z"
         id="path86" />
    </g>
    <g
       id="g92">
      <path
         style="opacity:0.99199997;fill:#f8a224"
         d="m 26.5,202.5 c 31.3333,0 62.6667,0 94,0 -0.221,2.779 0.112,5.446 1,8 -31.6667,0 -63.3333,0 -95,0 0,-2.667 0,-5.333 0,-8 z"
         id="path90" />
    </g>
    <g
       id="g96">
      <path
         style="opacity:0.98799995;fill:#f8a224"
         d="m 482.5,202.5 c 37.667,0 75.333,0 113,0 2.353,2.36 4.353,5.027 6,8 -37.667,0 -75.333,0 -113,0 -2.353,-2.36 -4.353,-5.027 -6,-8 z"
         id="path94" />
    </g>
    <g
       id="g100">
      <path
         style="opacity:0.98799995;fill:#f8a224"
         d="m 693.5,202.5 c 36.667,0 73.333,0 110,0 -1.647,2.973 -3.647,5.64 -6,8 -36.667,0 -73.333,0 -110,0 1.647,-2.973 3.647,-5.64 6,-8 z"
         id="path98" />
    </g>
    <g
       id="g104">
      <path
         style="opacity:0.99800002;fill:#f8a224"
         d="m 891.5,202.5 c 99.333,0 198.67,0 298,0 -1.65,2.973 -3.65,5.64 -6,8 -97.33,0 -194.667,0 -292,0 0,-2.667 0,-5.333 0,-8 z"
         id="path102" />
    </g>
    <g
       id="g108">
      <path
         style="opacity:0.98999999;fill:#f9a126"
         d="m 26.5,210.5 c 31.6667,0 63.3333,0 95,0 0.075,2.706 0.408,5.373 1,8 -31.6667,0 -63.3333,0 -95,0 0.0987,-2.737 -0.2347,-5.404 -1,-8 z"
         id="path106" />
    </g>
    <g
       id="g112">
      <path
         style="opacity:0.98900003;fill:#f9a126"
         d="m 488.5,210.5 c 37.667,0 75.333,0 113,0 1.667,2.667 3.333,5.333 5,8 -37.667,0 -75.333,0 -113,0 -2.178,-2.358 -3.845,-5.025 -5,-8 z"
         id="path110" />
    </g>
    <g
       id="g116">
      <path
         style="opacity:0.98799995;fill:#f9a126"
         d="m 687.5,210.5 c 36.667,0 73.333,0 110,0 -1.525,3.063 -3.525,5.73 -6,8 -36.667,0 -73.333,0 -110,0 2.012,-2.705 4.012,-5.372 6,-8 z"
         id="path114" />
    </g>
    <g
       id="g120">
      <path
         style="opacity:0.99800002;fill:#f9a126"
         d="m 891.5,210.5 c 97.333,0 194.67,0 292,0 -2,2.667 -4,5.333 -6,8 -95.33,0 -190.667,0 -286,0 0,-2.667 0,-5.333 0,-8 z"
         id="path118" />
    </g>
    <g
       id="g124">
      <path
         style="opacity:0.99199997;fill:#f99e24"
         d="m 27.5,218.5 c 31.6667,0 63.3333,0 95,0 0.844,3.711 1.844,7.377 3,11 -32,0 -64,0 -96,0 -0.348,-3.758 -1.0147,-7.424 -2,-11 z"
         id="path122" />
    </g>
    <g
       id="g128">
      <path
         style="opacity:0.98900003;fill:#f99e24"
         d="m 493.5,218.5 c 37.667,0 75.333,0 113,0 2.721,3.394 5.054,7.061 7,11 -37.333,0 -74.667,0 -112,0 -2.899,-3.452 -5.566,-7.118 -8,-11 z"
         id="path126" />
    </g>
    <g
       id="g132">
      <path
         style="opacity:0.98900003;fill:#f99e24"
         d="m 681.5,218.5 c 36.667,0 73.333,0 110,0 -1.912,3.917 -4.245,7.583 -7,11 -36.667,0 -73.333,0 -110,0 1.912,-3.917 4.245,-7.583 7,-11 z"
         id="path130" />
    </g>
    <g
       id="g136">
      <path
         style="opacity:0.97699998;fill:#f99f24"
         d="m 891.5,218.5 c 95.333,0 190.67,0 286,0 -1.83,2.005 -3.5,4.172 -5,6.5 -62,0.5 -124,0.667 -186,0.5 0,1.333 0,2.667 0,4 -31.667,0 -63.333,0 -95,0 0,-3.667 0,-7.333 0,-11 z"
         id="path134" />
    </g>
    <g
       id="g140">
      <path
         style="opacity:0.98600003;fill:#f99d22"
         d="m 29.5,229.5 c 32,0 64,0 96,0 0.838,0.342 1.172,1.008 1,2 -32,0 -64,0 -96,0 -0.3333,-0.667 -0.6667,-1.333 -1,-2 z"
         id="path138" />
    </g>
    <g
       id="g144">
      <path
         style="opacity:0.99100001;fill:#f99d22"
         d="m 501.5,229.5 c 37.333,0 74.667,0 112,0 1,0.333 1.667,1 2,2 -37.667,0 -75.333,0 -113,0 -0.333,-0.667 -0.667,-1.333 -1,-2 z"
         id="path142" />
    </g>
    <g
       id="g148">
      <path
         style="opacity:0.98600003;fill:#f99d22"
         d="m 674.5,229.5 c 36.667,0 73.333,0 110,0 -0.333,1 -1,1.667 -2,2 -36.667,0 -73.333,0 -110,0 0.333,-1 1,-1.667 2,-2 z"
         id="path146" />
    </g>
    <g
       id="g152">
      <path
         style="opacity:0.99199997;fill:#f99d22"
         d="m 891.5,229.5 c 31.667,0 63.333,0 95,0 0,0.667 0,1.333 0,2 -31.667,0 -63.333,0 -95,0 0,-0.667 0,-1.333 0,-2 z"
         id="path150" />
    </g>
    <g
       id="g156">
      <path
         style="opacity:0.98799995;fill:#fa9921"
         d="m 30.5,231.5 c 32,0 64,0 96,0 3.091,6.518 6.425,12.851 10,19 -33.333,0 -66.6667,0 -100,0 -2.769,-6.071 -4.769,-12.405 -6,-19 z"
         id="path154" />
    </g>
    <g
       id="g160">
      <path
         style="opacity:0.98900003;fill:#fa9921"
         d="m 502.5,231.5 c 37.667,0 75.333,0 113,0 4.58,6.16 8.914,12.493 13,19 -37.667,0 -75.333,0 -113,0 -4.58,-6.16 -8.914,-12.493 -13,-19 z"
         id="path158" />
    </g>
    <g
       id="g164">
      <path
         style="opacity:0.98900003;fill:#fa9921"
         d="m 672.5,231.5 c 36.667,0 73.333,0 110,0 -3.95,6.613 -8.283,12.946 -13,19 -36.667,0 -73.333,0 -110,0 3.943,-6.608 8.276,-12.941 13,-19 z"
         id="path162" />
    </g>
    <g
       id="g168">
      <path
         style="opacity:0.99199997;fill:#fa9921"
         d="m 891.5,231.5 c 31.667,0 63.333,0 95,0 0,6.333 0,12.667 0,19 -31.667,0 -63.333,0 -95,0 0,-6.333 0,-12.667 0,-19 z"
         id="path166" />
    </g>
    <g
       id="g172">
      <path
         style="opacity:0.98699999;fill:#fa961e"
         d="m 36.5,250.5 c 33.3333,0 66.667,0 100,0 1.762,0.762 2.762,2.096 3,4 -33.667,0 -67.3333,0 -101,0 -1.1737,-1.014 -1.8404,-2.347 -2,-4 z"
         id="path170" />
    </g>
    <g
       id="g176">
      <path
         style="opacity:0.98900003;fill:#fa961e"
         d="m 515.5,250.5 c 37.667,0 75.333,0 113,0 1.1,1.105 1.767,2.438 2,4 -37.333,0 -74.667,0 -112,0 -0.988,-1.295 -1.988,-2.628 -3,-4 z"
         id="path174" />
    </g>
    <g
       id="g180">
      <path
         style="opacity:0.98799995;fill:#fa961e"
         d="m 659.5,250.5 c 36.667,0 73.333,0 110,0 -1.012,1.372 -2.012,2.705 -3,4 -36.667,0 -73.333,0 -110,0 0.526,-1.73 1.526,-3.064 3,-4 z"
         id="path178" />
    </g>
    <g
       id="g184">
      <path
         style="opacity:0.99199997;fill:#fa961e"
         d="m 891.5,250.5 c 31.667,0 63.333,0 95,0 0,1.333 0,2.667 0,4 -31.667,0 -63.333,0 -95,0 0,-1.333 0,-2.667 0,-4 z"
         id="path182" />
    </g>
    <g
       id="g188">
      <path
         style="opacity:0.98600003;fill:#fa921c"
         d="m 38.5,254.5 c 33.6667,0 67.333,0 101,0 7.101,7.442 14.767,14.109 23,20 -38,0 -76,0 -114,0 -4.3738,-6.081 -7.7071,-12.748 -10,-20 z"
         id="path186" />
    </g>
    <g
       id="g192">
      <path
         style="opacity:0.98900003;fill:#fa921c"
         d="m 518.5,254.5 c 37.333,0 74.667,0 112,0 4.567,5.457 8.9,11.123 13,17 4.585,-5.517 8.918,-11.183 13,-17 36.667,0 73.333,0 110,0 -4.31,6.966 -8.977,13.633 -14,20 -73.333,0 -146.667,0 -220,0 -5.023,-6.367 -9.69,-13.034 -14,-20 z"
         id="path190" />
    </g>
    <g
       id="g196">
      <path
         style="opacity:0.99199997;fill:#fa921c"
         d="m 891.5,254.5 c 31.667,0 63.333,0 95,0 0,6.667 0,13.333 0,20 -31.667,0 -63.333,0 -95,0 0,-6.667 0,-13.333 0,-20 z"
         id="path194" />
    </g>
    <g
       id="g200">
      <path
         style="opacity:0.98500001;fill:#fb8d19"
         d="m 48.5,274.5 c 38,0 76,0 114,0 9.553,5.778 19.553,10.445 30,14 -45,0 -90,0 -135,0 -3.7809,-4.124 -6.7809,-8.791 -9,-14 z"
         id="path198" />
    </g>
    <g
       id="g204">
      <path
         style="opacity:0.994;fill:#fb8d19"
         d="m 532.5,274.5 c 73.333,0 146.667,0 220,0 -2.978,4.969 -6.311,9.635 -10,14 -66.667,0 -133.333,0 -200,0 -3.689,-4.365 -7.022,-9.031 -10,-14 z"
         id="path202" />
    </g>
    <g
       id="g208">
      <path
         style="opacity:0.99199997;fill:#fb8d19"
         d="m 891.5,274.5 c 31.667,0 63.333,0 95,0 0,4.667 0,9.333 0,14 -31.667,0 -63.333,0 -95,0 0,-4.667 0,-9.333 0,-14 z"
         id="path206" />
    </g>
    <g
       id="g212">
      <path
         style="opacity:0.98000004;fill:#fc8a17"
         d="m 57.5,288.5 c 45,0 90,0 135,0 10.046,2.409 20.046,4.409 30,6 -53.667,0 -107.333,0 -161,0 -1.7255,-1.728 -3.0589,-3.728 -4,-6 z"
         id="path210" />
    </g>
    <g
       id="g216">
      <path
         style="opacity:0.99299999;fill:#fc8a17"
         d="m 542.5,288.5 c 66.667,0 133.333,0 200,0 -0.941,2.272 -2.274,4.272 -4,6 -64,0 -128,0 -192,0 -1.826,-1.647 -3.16,-3.647 -4,-6 z"
         id="path214" />
    </g>
    <g
       id="g220">
      <path
         style="opacity:0.99199997;fill:#fc8a17"
         d="m 891.5,288.5 c 31.667,0 63.333,0 95,0 0,2 0,4 0,6 -31.667,0 -63.333,0 -95,0 0,-2 0,-4 0,-6 z"
         id="path218" />
    </g>
    <g
       id="g224">
      <path
         style="opacity:0.981;fill:#fc8615"
         d="m 61.5,294.5 c 53.667,0 107.333,0 161,0 83.669,-0.333 167.336,0 251,1 -4.673,6.664 -9.673,12.997 -15,19 -126,0 -252,0 -378,0 -7.0361,-6.035 -13.3695,-12.702 -19,-20 z"
         id="path222" />
    </g>
    <g
       id="g228">
      <path
         style="opacity:0.99299999;fill:#fc8615"
         d="m 546.5,294.5 c 64,0 128,0 192,0 -4.667,6.667 -9.333,13.333 -14,20 -54.667,0 -109.333,0 -164,0 -5.147,-6.279 -9.813,-12.946 -14,-20 z"
         id="path226" />
    </g>
    <g
       id="g232">
      <path
         style="opacity:0.98000004;fill:#fc8615"
         d="m 891.5,294.5 c 31.667,0 63.333,0 95,0 85.34,-0.333 170.67,0 256,1 -4.67,6.664 -9.67,12.997 -15,19 -112,0 -224,0 -336,0 0,-6.667 0,-13.333 0,-20 z"
         id="path230" />
    </g>
    <g
       id="g236">
      <path
         style="opacity:0.99599998;fill:#fd8212"
         d="m 80.5,314.5 c 126,0 252,0 378,0 -0.575,1.911 -1.575,3.578 -3,5 -123,0 -246,0 -369,0 -2.4095,-1.201 -4.4095,-2.867 -6,-5 z"
         id="path234" />
    </g>
    <g
       id="g240">
      <path
         style="opacity:0.99100001;fill:#fd8212"
         d="m 560.5,314.5 c 54.667,0 109.333,0 164,0 -1.364,1.691 -2.697,3.358 -4,5 -52.333,0 -104.667,0 -157,0 -1.39,-1.399 -2.39,-3.066 -3,-5 z"
         id="path238" />
    </g>
    <g
       id="g244">
      <path
         style="opacity:0.99800002;fill:#fd8212"
         d="m 891.5,314.5 c 112,0 224,0 336,0 -0.62,2.254 -1.96,3.921 -4,5 -110.67,0 -221.33,0 -332,0 0,-1.667 0,-3.333 0,-5 z"
         id="path242" />
    </g>
    <g
       id="g248">
      <path
         style="opacity:0.99500002;fill:#fd7f10"
         d="m 86.5,319.5 c 123,0 246,0 369,0 -4.667,6 -9.333,12 -14,18 -109.667,0 -219.333,0 -329,0 -9.498,-4.837 -18.1651,-10.837 -26,-18 z"
         id="path246" />
    </g>
    <g
       id="g252">
      <path
         style="opacity:0.99100001;fill:#fd7f10"
         d="m 563.5,319.5 c 52.333,0 104.667,0 157,0 -3.856,6.391 -8.189,12.391 -13,18 -43.667,0 -87.333,0 -131,0 -4.811,-5.609 -9.144,-11.609 -13,-18 z"
         id="path250" />
    </g>
    <g
       id="g256">
      <path
         style="opacity:0.99800002;fill:#fd7f10"
         d="m 891.5,319.5 c 110.67,0 221.33,0 332,0 -4.19,6.371 -8.85,12.371 -14,18 -106,0 -212,0 -318,0 0,-6 0,-12 0,-18 z"
         id="path254" />
    </g>
    <g
       id="g260">
      <path
         style="opacity:0.994;fill:#fe7a0d"
         d="m 112.5,337.5 c 109.667,0 219.333,0 329,0 -3.697,4.691 -7.364,9.358 -11,14 -96.667,0 -193.333,0 -290,0 -9.93,-3.632 -19.263,-8.298 -28,-14 z"
         id="path258" />
    </g>
    <g
       id="g264">
      <path
         style="opacity:0.98799995;fill:#fe7a0d"
         d="m 576.5,337.5 c 43.667,0 87.333,0 131,0 -2.883,5.555 -6.883,10.222 -12,14 -36,0 -72,0 -108,0 -3.28,-2.543 -6.113,-5.543 -8.5,-9 -1.094,-1.578 -1.928,-3.245 -2.5,-5 z"
         id="path262" />
    </g>
    <g
       id="g268">
      <path
         style="opacity:0.99800002;fill:#fe7a0d"
         d="m 891.5,337.5 c 106,0 212,0 318,0 -2.92,4.927 -6.25,9.594 -10,14 -102.67,0 -205.333,0 -308,0 0,-4.667 0,-9.333 0,-14 z"
         id="path266" />
    </g>
    <g
       id="g272">
      <path
         style="opacity:0.99199997;fill:#fe770b"
         d="m 140.5,351.5 c 96.667,0 193.333,0 290,0 -1.201,2.409 -2.867,4.409 -5,6 -89.333,0 -178.667,0 -268,0 -6.032,-1.231 -11.699,-3.231 -17,-6 z"
         id="path270" />
    </g>
    <g
       id="g276">
      <path
         style="opacity:0.98600003;fill:#fe770b"
         d="m 587.5,351.5 c 36,0 72,0 108,0 -1.667,2.333 -3.667,4.333 -6,6 -32,0 -64,0 -96,0 -2.333,-1.667 -4.333,-3.667 -6,-6 z"
         id="path274" />
    </g>
    <g
       id="g280">
      <path
         style="opacity:0.997;fill:#fe770b"
         d="m 891.5,351.5 c 102.667,0 205.33,0 308,0 -1.68,2.04 -3.34,4.04 -5,6 -101,0 -202,0 -303,0 0,-2 0,-4 0,-6 z"
         id="path278" />
    </g>
    <g
       id="g284">
      <path
         style="opacity:0.98500001;fill:#fe740a"
         d="m 157.5,357.5 c 89.333,0 178.667,0 268,0 -2.413,3.814 -5.079,7.481 -8,11 -67.331,1.167 -134.664,1.333 -202,0.5 -19.995,-1.162 -39.329,-4.995 -58,-11.5 z"
         id="path282" />
    </g>
    <g
       id="g288">
      <path
         style="opacity:0.96199999;fill:#fe7409"
         d="m 593.5,357.5 c 32,0 64,0 96,0 -17.293,15.581 -37.626,21.414 -61,17.5 -13.647,-2.157 -25.313,-7.99 -35,-17.5 z"
         id="path286" />
    </g>
    <g
       id="g292">
      <path
         style="opacity:0.978;fill:#fe740a"
         d="m 891.5,357.5 c 101,0 202,0 303,0 -2.79,3.958 -5.79,7.791 -9,11.5 -98,0.5 -195.999,0.667 -294,0.5 0,-4 0,-8 0,-12 z"
         id="path290" />
    </g>
  </g>
</svg>
